HIERARCHY
ROOT Hips
{
	OFFSET -14.64140 90.27770 -84.91600
	CHANNELS 6 Xposition Yposition Zposition Zrotation Xrotation Yrotation
	JOINT Spine
	{
		OFFSET 0.00000 13.20850 -1.60436
		CHANNELS 3 Zrotation Xrotation Yrotation
		JOINT Spine1
		{
			OFFSET 0.00000 8.61716 0.00000
			CHANNELS 3 Zrotation Xrotation Yrotation
			JOINT Spine2
			{
				OFFSET 0.00000 8.61717 0.00000
				CHANNELS 3 Zrotation Xrotation Yrotation
				JOINT Spine3
				{
					OFFSET 0.00000 8.61717 0.00000
					CHANNELS 3 Zrotation Xrotation Yrotation
					JOINT Neck
					{
						OFFSET 0.00000 11.07920 1.10792
						CHANNELS 3 Zrotation Xrotation Yrotation
						JOINT Neck1
						{
							OFFSET 0.00000 7.08032 0.00000
							CHANNELS 3 Zrotation Xrotation Yrotation
							JOINT Head
							{
								OFFSET 0.00000 7.08031 0.00000
								CHANNELS 3 Zrotation Xrotation Yrotation
								End site
								{
									OFFSET 0.00000 0.00000 0.00000
								}
							}
						}
					}
					JOINT RightShoulder
					{
						OFFSET -0.01000 7.91373 5.19711
						CHANNELS 3 Zrotation Xrotation Yrotation
						JOINT RightArm
						{
							OFFSET -18.41580 0.00000 0.00000
							CHANNELS 3 Zrotation Xrotation Yrotation
							JOINT RightForeArm
							{
								OFFSET -29.11090 0.00000 0.00000
								CHANNELS 3 Zrotation Xrotation Yrotation
								JOINT RightHand
								{
									OFFSET -24.65040 0.00000 0.00000
									CHANNELS 3 Zrotation Xrotation Yrotation
									JOINT RightHandThumb1
									{
										OFFSET -5.35114 -0.85590 3.97906
										CHANNELS 3 Zrotation Xrotation Yrotation
										JOINT RightHandThumb2
										{
											OFFSET -4.52789 0.00000 0.00000
											CHANNELS 3 Zrotation Xrotation Yrotation
											JOINT RightHandThumb3
											{
												OFFSET -2.46976 0.00000 0.00000
												CHANNELS 3 Zrotation Xrotation Yrotation
												End site
												{
													OFFSET 0.00000 0.00000 0.00000
												}
											}
										}
									}
									JOINT RightHandIndex1
									{
										OFFSET -14.26970 0.00000 2.88139
										CHANNELS 3 Zrotation Xrotation Yrotation
										JOINT RightHandIndex2
										{
											OFFSET -5.48836 0.00000 0.00000
											CHANNELS 3 Zrotation Xrotation Yrotation
											JOINT RightHandIndex3
											{
												OFFSET -3.01859 0.00000 0.00000
												CHANNELS 3 Zrotation Xrotation Yrotation
												End site
												{
													OFFSET 0.00000 0.00000 0.00000
												}
											}
										}
									}
									JOINT RightHandMiddle1
									{
										OFFSET -14.26970 0.00000 -0.09147
										CHANNELS 3 Zrotation Xrotation Yrotation
										JOINT RightHandMiddle2
										{
											OFFSET -6.17441 0.00000 0.00000
											CHANNELS 3 Zrotation Xrotation Yrotation
											JOINT RightHandMiddle3
											{
												OFFSET -3.56743 0.00000 0.00000
												CHANNELS 3 Zrotation Xrotation Yrotation
												End site
												{
													OFFSET 0.00000 0.00000 0.00000
												}
											}
										}
									}
									JOINT RightHandRing1
									{
										OFFSET -12.69180 0.00000 -3.06433
										CHANNELS 3 Zrotation Xrotation Yrotation
										JOINT RightHandRing2
										{
											OFFSET -5.62556 0.00000 0.00000
											CHANNELS 3 Zrotation Xrotation Yrotation
											JOINT RightHandRing3
											{
												OFFSET -3.56744 0.00000 0.00000
												CHANNELS 3 Zrotation Xrotation Yrotation
												End site
												{
													OFFSET 0.00000 0.00000 0.00000
												}
											}
										}
									}
									JOINT RightHandPinky1
									{
										OFFSET -11.11390 0.00000 -6.03719
										CHANNELS 3 Zrotation Xrotation Yrotation
										JOINT RightHandPinky2
										{
											OFFSET -4.52789 0.00000 0.00000
											CHANNELS 3 Zrotation Xrotation Yrotation
											JOINT RightHandPinky3
											{
												OFFSET -2.46976 0.00000 0.00000
												CHANNELS 3 Zrotation Xrotation Yrotation
												End site
												{
													OFFSET 0.00000 0.00000 0.00000
												}
											}
										}
									}
								}
							}
						}
					}
					JOINT LeftShoulder
					{
						OFFSET 0.01000 7.91373 5.19711
						CHANNELS 3 Zrotation Xrotation Yrotation
						JOINT LeftArm
						{
							OFFSET 18.41580 0.00000 0.00000
							CHANNELS 3 Zrotation Xrotation Yrotation
							JOINT LeftForeArm
							{
								OFFSET 29.11090 0.00000 0.00000
								CHANNELS 3 Zrotation Xrotation Yrotation
								JOINT LeftHand
								{
									OFFSET 24.65040 0.00000 0.00000
									CHANNELS 3 Zrotation Xrotation Yrotation
									JOINT LeftHandThumb1
									{
										OFFSET 5.35114 -0.85590 3.97906
										CHANNELS 3 Zrotation Xrotation Yrotation
										JOINT LeftHandThumb2
										{
											OFFSET 4.52789 0.00000 0.00000
											CHANNELS 3 Zrotation Xrotation Yrotation
											JOINT LeftHandThumb3
											{
												OFFSET 2.46977 0.00000 0.00000
												CHANNELS 3 Zrotation Xrotation Yrotation
												End site
												{
													OFFSET 0.00000 0.00000 0.00000
												}
											}
										}
									}
									JOINT LeftHandIndex1
									{
										OFFSET 14.26970 0.00000 2.88139
										CHANNELS 3 Zrotation Xrotation Yrotation
										JOINT LeftHandIndex2
										{
											OFFSET 5.48836 0.00000 0.00000
											CHANNELS 3 Zrotation Xrotation Yrotation
											JOINT LeftHandIndex3
											{
												OFFSET 3.01859 0.00000 0.00000
												CHANNELS 3 Zrotation Xrotation Yrotation
												End site
												{
													OFFSET 0.00000 0.00000 0.00000
												}
											}
										}
									}
									JOINT LeftHandMiddle1
									{
										OFFSET 14.26970 0.00000 -0.09147
										CHANNELS 3 Zrotation Xrotation Yrotation
										JOINT LeftHandMiddle2
										{
											OFFSET 6.17440 0.00000 0.00000
											CHANNELS 3 Zrotation Xrotation Yrotation
											JOINT LeftHandMiddle3
											{
												OFFSET 3.56744 0.00000 0.00000
												CHANNELS 3 Zrotation Xrotation Yrotation
												End site
												{
													OFFSET 0.00000 0.00000 0.00000
												}
											}
										}
									}
									JOINT LeftHandRing1
									{
										OFFSET 12.69180 0.00000 -3.06433
										CHANNELS 3 Zrotation Xrotation Yrotation
										JOINT LeftHandRing2
										{
											OFFSET 5.62556 0.00000 0.00000
											CHANNELS 3 Zrotation Xrotation Yrotation
											JOINT LeftHandRing3
											{
												OFFSET 3.56744 0.00000 0.00000
												CHANNELS 3 Zrotation Xrotation Yrotation
												End site
												{
													OFFSET 0.00000 0.00000 0.00000
												}
											}
										}
									}
									JOINT LeftHandPinky1
									{
										OFFSET 11.11390 0.00000 -6.03719
										CHANNELS 3 Zrotation Xrotation Yrotation
										JOINT LeftHandPinky2
										{
											OFFSET 4.52789 0.00000 0.00000
											CHANNELS 3 Zrotation Xrotation Yrotation
											JOINT LeftHandPinky3
											{
												OFFSET 2.46976 0.00000 0.00000
												CHANNELS 3 Zrotation Xrotation Yrotation
												End site
												{
													OFFSET 0.00000 0.00000 0.00000
												}
											}
										}
									}
								}
							}
						}
					}
					JOINT pCube4
					{
						OFFSET 0.00000 10.91090 1.10792
						CHANNELS 3 Zrotation Xrotation Yrotation
						End site
						{
							OFFSET 0.00000 0.00000 0.00000
						}
					}
				}
			}
		}
	}
	JOINT RightUpLeg
	{
		OFFSET -9.98441 0.00000 0.00000
		CHANNELS 3 Zrotation Xrotation Yrotation
		JOINT RightLeg
		{
			OFFSET 0.00000 -42.11790 0.00000
			CHANNELS 3 Zrotation Xrotation Yrotation
			JOINT RightFoot
			{
				OFFSET 0.00000 -45.00020 -0.00001
				CHANNELS 3 Zrotation Xrotation Yrotation
				JOINT RightForeFoot
				{
					OFFSET 0.00000 -3.74820 0.00000
					CHANNELS 3 Zrotation Xrotation Yrotation
					JOINT RightToeBase
					{
						OFFSET 0.00000 0.06325 14.43120
						CHANNELS 3 Zrotation Xrotation Yrotation
						End site
						{
							OFFSET 0.00000 0.00000 0.00000
						}
					}
				}
			}
		}
	}
	JOINT LeftUpLeg
	{
		OFFSET 9.98441 0.00000 0.00000
		CHANNELS 3 Zrotation Xrotation Yrotation
		JOINT LeftLeg
		{
			OFFSET 0.00000 -42.11800 0.00000
			CHANNELS 3 Zrotation Xrotation Yrotation
			JOINT LeftFoot
			{
				OFFSET 0.00000 -45.00070 0.00000
				CHANNELS 3 Zrotation Xrotation Yrotation
				JOINT LeftForeFoot
				{
					OFFSET 0.00000 -3.74824 0.00000
					CHANNELS 3 Zrotation Xrotation Yrotation
					JOINT LeftToeBase
					{
						OFFSET 0.00000 0.06325 14.43110
						CHANNELS 3 Zrotation Xrotation Yrotation
						End site
						{
							OFFSET 0.00000 0.00000 0.00000
						}
					}
				}
			}
		}
	}
}
MOTION
Frames: 4
Frame Time: 0.050000
-0.006310445549667866 -0.04810741545569011 -0.013757915822994482 -0.04337726343269527 0.013299551903160754 -0.0016387306477762644 -1.2680283569019124 1.2827705749761311 -1.037803384129551 -0.451809259594959 3.9673049550356367 0.2975699985313165 -0.8198198706922094 -1.8385135835974995 1.9690709662900734 -1.3763023857762466 -0.882584872115384 -0.25804521254336626 -0.18384931554000045 14.936952056034213 0.9800311052652907 0.5725593832319399 -0.18645328667285965 0.7012563809407322 0.4879891223326187 -15.1849886037897 0.0022681963537020643 -4.653253325049118 1.7474233714167753 -13.699897532258392 69.06525178601711 -1.3180809013170451 47.27067613671747 9.320549124884652 5.988351360661632 109.78812803867375 18.989183410576196 -0.5189746760994649 -0.9950640665583255 4.5509738026930355 -0.16432870748331319 -1.603160717703356 0.0015205217046851598 -0.007484494494291888 -56.223343457980924 -0.02902531077785723 -0.022504810667991624 -56.23255047867169 -38.788681461044675 0.020758134321656175 0.026064848666348575 -0.04967940807916579 0.04760742976923725 -0.03744347890896819 -0.012013632536654405 -0.04705315075791995 -0.007911826011724968 -36.695347735366326 0.034331993582797656 -0.03996105349626723 0.038384922786247624 0.0183394662322404 0.0016833180398041461 0.01468454474683172 0.028206299774079697 0.046031778272001146 -19.75497121583152 -0.012161023050394043 0.022663026841749943 0.008562976159816344 0.023503668942246907 -0.04106217812133591 0.04044089531557699 -0.047012957748842246 -0.04561876895697519 24.065166833222758 0.010967496418213733 0.0007300675341916794 28.857528799997496 0.03018073201321052 0.04254398136769949 28.8773146162763 0.028202771360624296 0.009600353085524847 5.3667571398683 1.3303387907317559 13.457838892054653 -70.67050517427676 17.092044801961922 -25.256099740952415 0.4352648565715428 -3.0954591303005 -97.91912704955988 -18.788974950030028 8.840007519975211 -7.980026867056472 -0.500566673540985 0.024242441167894098 -8.105484066891037 -0.01894955918939373 0.0314024673095086 44.61253324788305 0.02244651503907626 -0.04025332379697477 44.57333387283951 12.422311387980137 0.02955509530390017 0.037239635762016055 -0.02865381384596575 -0.04389781273428866 -0.01023219242903637 0.04008384530189098 -0.00018742670122313346 0.010859620407849432 11.076639850618944 0.01891471079082917 -0.0003324341704463512 -0.005944477939073015 0.00012945018381602593 -0.015883941722507396 0.009772051930615833 0.027746808252369016 -0.034145864500044636 4.749214344448945 -0.04855845246999637 -0.029265823574288325 -0.008333105135815259 0.020945562400637878 -0.01226372391889959 -0.025834196293936892 -0.03505651423521027 0.01305889168256396 -5.62536325331972 0.011081593130716974 -0.018185336043589944 -6.708643622123671 -0.030909033896881554 -0.003035340418729497 -6.746770772212583 -0.029321309274159803 -0.045446631194743806 0.010314597768888026 -0.005246698461683546 -0.009410777288637661 8.08689405498195 3.493938404142187 -19.2606975569352 -0.03770936843130808 10.35191951625171 -0.02373228550779286 -5.594461024731249 -15.68673336132969 3.145896674451561 -0.04436494953712561 -0.0007189016579370837 0.001108595901832333 -0.01158523019560348 4.667596119551149 0.04874188054641388 12.506378663532546 -8.272088416304392 6.924633023984089 0.027456326220053638 46.36594212789691 -0.02781849898746841 -4.363472167930816 -14.772334700430683 -3.801385429018655 0.002056625464073602 -0.049403104296478484 0.00452040726090443 -0.041902536415529434 -10.784051688231118 -0.03182823236414169 
0.0031480658331408395 0.021717339583218424 0.03966388413418189 0.033409743859596046 -0.008650981938848506 0.03581042307254704 -1.448739713799724 1.272778234808157 -1.0422276901350114 -0.4427822178083745 4.018516460672906 0.3368961519878187 -0.7953342148029088 -1.938032309336667 1.810343144762238 -1.3960106643315437 -0.8525435169753909 -0.2682252917252931 -0.2940604474822902 15.095620205507863 1.195703045321323 0.5539568420292381 -0.28205787429338414 1.270149712561997 0.4125390396033207 -15.405098648027737 0.015547445696669611 -4.454210065953482 1.7377530281753293 -13.682204181550036 69.55774510397065 -0.3294147000335905 47.18256744290066 8.53636263583552 5.621457610807081 111.06232430042556 18.90346195680472 -0.5679984255970466 -0.9521286273328043 4.555042051393071 -0.14692578191941982 -1.5683636413463775 0.028982529607482422 -0.003467182248485453 -56.22506846347554 -0.026131616377286282 0.03346467969132724 -56.20956039659219 -38.74649538386819 0.04072941714481062 0.014157315254987556 0.028750541831949084 0.044529129625275506 -0.04981979075937372 0.0022751407733434354 -0.034154947237786615 0.013494043302749878 -36.677715087009474 -0.015678505929292905 0.023224051507911472 -0.017290182171686222 0.01509100182920192 -0.0035235560534564304 -0.008397914002095375 -0.02643354589593372 -0.014549991705527942 -19.747650641007017 -0.021149015677748437 0.003218187976332391 0.0008618175071493125 -0.006855710776651616 0.009473515808678772 -0.009939723302833868 -0.009984443010105074 0.015530815969609079 24.070263395700753 0.023102073238079366 -0.02901146804265347 28.85217526073713 0.048672922110624364 -0.022674527661697592 28.85728163485628 -0.007018578388784951 -0.025914881295001108 5.630015336289086 1.401166170194255 13.439272033996408 -70.51288814601888 17.711941537868974 -27.01436313763221 2.9355245874539166 -4.179736533187577 -101.05748344131025 -18.228060607314003 8.962259797182753 -8.114748067763946 -0.49711698442376295 0.05249708722682547 -8.111363279809913 0.0028565599263192494 -0.03286324539161406 44.55340613977221 -0.020196104457417426 -0.014632536139904784 44.53607993066587 12.43488543326874 0.014634095109508262 -0.020183128315196922 -0.003610011721755793 0.03020276884367241 0.008112914224209029 0.014882050167894336 0.03137080991707905 0.04268775060065203 11.11450835123016 0.024445819546377312 -0.02946381078184243 0.047994761242417604 -0.022006110941790006 0.03909146143867896 -0.037410580232826555 -0.03773489614105491 0.03409027517469949 4.754817114381566 -0.012149601486618757 0.020273958419048985 0.03352017776783701 -0.023353451601498834 0.033661001730912396 0.04119686837933391 -0.010397139736309425 -0.017888900051543023 -5.625793045666066 0.010054450337024555 0.018718108177017353 -6.717780149001402 -0.026336288024689607 0.025770640872085002 -6.689752103348414 0.0037177821440520483 0.00327409062932434 0.008907438180847294 -0.013736758745781738 -0.03607439801651079 8.044563374409833 3.5076145609055494 -19.20183945570192 -0.020361457576921177 10.372460748561508 -0.02406332168992507 -5.6157109968944425 -15.667592195390617 3.181993565621906 -0.000908902781374273 -0.03155538725309729 0.0026091189616667715 0.012003629221942208 4.674106066384968 0.019837466677237098 12.428371683516751 -8.208260341801902 6.900347368998585 0.036051592998994325 46.35984555844335 -0.01466765426757578 -4.288397196123933 -14.758377818693102 -3.877159747993426 -0.018367559570518447 -0.028651371470885315 -0.0036112307137005336 -0.039435974286155875 -10.788791857037884 -0.020836256318512502 
0.009329953599620541 0.0039722191450251 0.048865785610501415 -0.023623494481612835 0.010917409423820103 -0.0437606859853246 -1.441756853617702 1.2009035332858002 -1.0253560056899174 -0.4360099800850927 4.050292921841437 0.36582778682915895 -0.7840261010632948 -1.8996904750077814 1.7624517094736936 -1.3563037404598517 -0.828327212883329 -0.337227434776851 -0.33919874319917603 15.290183185676261 1.1924690875263348 0.5924563281530092 -0.29832116369455475 1.4891545949373262 0.38081465339387094 -15.513165408979376 0.09511377707056756 -4.440087327089262 1.734058932612499 -13.69482849624571 70.29287477660027 0.3280206689187943 47.328579535694466 7.553880272629343 5.207311264113513 112.41543581928835 18.626756495072218 -0.5480814620810318 -1.011846236556791 4.517898463460055 -0.13104674524806523 -1.5983855960752427 0.015090839761463755 0.039182843800027324 -56.25826928939227 0.022625604405799717 -0.044981317273609975 -56.19328905903283 -38.75290293061621 -0.03428810279986433 -0.021151586129420055 0.0020082561567535805 -0.03958681435019997 0.01856887084785824 0.0248197695430066 -0.026453273306114862 -0.04594908743235396 -36.71618759750166 -0.015543413329841644 -0.03585347026492439 -0.018795155517614216 -0.005067692710245934 -0.011132159438801139 -0.011979824787571541 0.018371302130260395 -0.04996837599498639 -19.75906517032596 -0.03713024166839712 0.04531189107607347 0.02305073518078172 0.03370630510366812 0.013513026552621517 -0.021539237646004912 -0.005829872725951776 -0.00011807722945642747 24.037998423392438 -0.017856735385380348 0.029200906225592835 28.9068621044202 -0.035913452228875375 0.046513141301963254 28.870352143986544 0.02038513875771254 0.03361334469645781 5.962656214945972 1.4220146926451682 13.528159058997197 -70.28619483114568 18.346305215258795 -28.694564890973854 5.1487981235755935 -5.064755262418569 -103.68905478738147 -17.45231613847922 8.820249976354596 -8.03138055447767 -0.48856262041224485 0.057556784359149744 -8.118120446274974 0.014250893679321282 -0.015355080445347826 44.56760163518262 -0.023454105332793167 0.004578261500378506 44.552705050723134 12.497680620148492 0.0028846490980945962 0.009303045841939781 0.000427447076925132 0.0037737733414001428 0.011695736273949094 0.005387500557601472 0.010904896232250244 -0.04082100170730889 11.062266679171929 0.04252870562690306 -0.038108178446757256 -0.02247600758111914 0.03813528539497219 0.03572836284514581 0.01591798517459211 -0.02638381254055761 -0.024515755690142402 4.767140315303337 -0.04529212715808298 0.014885254640243203 0.020651084746588017 -0.021461290867040246 -0.0023584785639932456 -0.013455968818948042 0.005138764412895931 0.02425014780200577 -5.553559399808749 0.0058243294102893065 -0.021024037994572926 -6.761260612204682 -0.04979126290611761 -0.011651759620051994 -6.67448000498338 0.015437609554542087 -0.03390432988002117 0.01217756145423179 0.00515223825781589 0.0012953274326362077 8.066897323611514 3.517342448346991 -19.20349141842822 0.045037289301152326 10.371149538599003 0.018163193130874913 -5.623955714211117 -15.634644605020815 3.1817724009195816 0.03125504032901267 -0.023206462550003484 -0.034027885177782005 -0.0367831358910371 4.731729191124666 0.025163979045874026 12.4348307685899 -8.215575887142107 6.8718374901137995 -0.009066973749965736 46.34414346944887 0.010073974852139992 -4.337074034543512 -14.732502221394375 -3.84387475056244 -0.004603583112644628 0.04329120669533737 0.008562873181078989 0.012634384000720669 -10.707276746012898 -0.012036166548355952 
-0.024164088305003193 -0.016760486435749882 -0.017169443048380775 0.040444696019156165 -0.01504437349911064 0.04313854361969249 -1.4059874849891454 1.210670717625778 -0.9993845062991781 -0.39864855599958554 4.057175749982838 0.3497242206650116 -0.8254783307372061 -1.9111558866937006 1.6247958882208806 -1.3383846751837394 -0.7814242304465538 -0.3175817724014363 -0.4228079670539879 15.587334495853597 1.2571499097801475 0.5417006128016506 -0.3489831385862381 1.6103832134843414 0.4578233037582428 -15.665434954384821 0.07228473980735 -4.472929350278254 1.6489139961319756 -13.725810871773469 70.71529624784608 1.8163207282696476 47.5201837752323 6.226620091021271 4.76390743022337 113.7177023061171 18.24887775874769 -0.5876335100455561 -1.004863196122069 4.559174184501542 -0.15562614607190142 -1.6243656570600968 0.014365510470680291 0.010466122347141612 -56.200223301491 0.0229666698114529 0.0010644677223032371 -56.24888473691459 -38.75041070062398 -0.023237880274920363 0.036197125816454546 0.02294216211123407 0.001634289521978047 -0.00928934143997058 0.027252239480651655 -0.026873433762718852 -0.023978886232944353 -36.71373531418664 -0.03769879079186392 -0.008319653594527065 0.008646457813877935 -0.0019013361951274465 -0.006464383517146211 0.010020216424700757 -0.03727200243400408 -0.034401809962694034 -19.73548709214713 0.04416744034172602 0.027939542389557166 -0.006874443067981944 -0.0225218261535901 0.011982755677688384 0.007377700144093552 0.02616252129554816 -0.03370791010003322 24.088392020731426 -0.04857280579130054 0.02793712517091473 28.858263984175572 0.03137591611365009 -0.0038619081121355294 28.846385005306622 0.025827588714902344 0.03341857928782222 6.273904292375499 1.502768596494107 13.492292378871161 -70.05170328572575 18.934774635325052 -30.329796644684937 6.528046642618044 -5.583249703838427 -105.71083049866806 -16.797778484990534 8.482593559213392 -7.797573003044236 -0.4573900126195416 0.09751020980315091 -8.164861085943219 0.009425351021652529 -0.017899895051558097 44.58198670352744 -0.020208628047733813 -0.0391655525131303 44.54266299993307 12.495971121130147 -0.006778469659561487 -0.025589828356116104 -0.024547082898978584 -0.013517308025027997 -0.03129870192606846 0.02386161499544578 0.04441212661917243 0.02665574418318769 11.077908197469238 -0.023136152407818564 0.02954855518473581 0.03745003470559987 -0.008730112845401341 0.0070293218837695175 0.03067632589958238 -0.0012892668035011936 0.040915629381531704 4.762763370094294 0.014607281579650406 -0.02082291213796914 -0.002663898556241309 0.025864010941285282 0.014369366566379669 0.02128122057349133 0.003902955892655833 -0.03696894971538006 -5.643831457410443 0.0053421464306789845 -0.012409595734692707 -6.694140835195198 -0.03111661156180413 0.019176328802067013 -6.7182239480688075 0.024374634317331494 0.04023704936819067 0.029014341590027318 0.015955140619976597 0.028408668347485934 8.035436144050278 3.497236194793164 -19.214679318645715 -0.018805893405426585 10.429989924656697 -0.006800926154112728 -5.652367413073322 -15.646504152724612 3.2095108655951203 0.04726297885376684 -0.013234778119831533 -0.0054161624201028895 -0.034094691372337504 4.660594867138031 0.005049726011951145 12.507802617743634 -8.22762486264828 6.87264936872456 0.0020219995885988836 46.32942387587423 -0.0204944294274747 -4.312260054955323 -14.701414016114038 -3.8075376713085274 -0.015082451192235722 -0.044051445696976575 0.02756774301835026 -0.006227012413192894 -10.733796827308863 0.02314954455412964 
